<?xml version="1.0" encoding="utf-8"?>
<!-- Generator: Adobe Illustrator 28.0.0, SVG Export Plug-In . SVG Version: 6.00 Build 0)  -->
<svg version="1.1" id="Layer_1" xmlns="http://www.w3.org/2000/svg" xmlns:xlink="http://www.w3.org/1999/xlink" x="0px" y="0px"
	 viewBox="0 0 400 400" style="enable-background:new 0 0 400 400;" xml:space="preserve">
<path d="M354.7,260.7c0.5-0.6,0.7-1.3,0.8-2.1c6.9-18.2,10.7-38,10.7-58.6c0-20.6-3.8-40.4-10.7-58.6c0-0.9-0.4-1.7-0.9-2.3
	c-8.6-21.8-21.7-41.4-38.2-57.6c-0.3-0.6-0.8-1-1.4-1.4C285.2,51.5,244.6,33.8,200,33.8c-91.6,0-166.2,74.6-166.2,166.2
	c0,46.4,19.2,88.5,50,118.7c0.3,0.6,0.8,1.1,1.4,1.4c29.9,28.6,70.3,46.1,114.8,46.1c44.5,0,84.9-17.5,114.7-46.1
	c0.9-0.4,1.5-1,1.9-1.9C333.1,302.1,346.1,282.5,354.7,260.7z M53.9,262.1h49.6c4.8,18.9,11.7,36.2,20.3,50.9H88.7
	C74,298.6,62.1,281.3,53.9,262.1z M166.6,254.6c-1.4-16.1-2.1-33.2-2.2-50.9h71.2c-0.1,17.7-0.9,34.8-2.2,50.9H166.6z M233.4,145.4
	c1.4,16.1,2.1,33.2,2.2,50.9h-71.2c0.1-17.7,0.9-34.8,2.2-50.9H233.4z M243.1,196.3c-0.1-17.3-0.9-34.5-2.3-50.9h49.9
	c3.6,15.9,5.6,33.1,5.9,50.9H243.1z M232.7,137.9h-65.3c1.9-18.7,4.6-35.9,8.1-50.7h49.2C228.1,102,230.8,119.1,232.7,137.9z
	 M159.2,145.4c-1.4,16.6-2.2,33.8-2.3,50.9h-53.4c0.3-17.8,2.3-35,5.9-50.9H159.2z M156.9,203.7c0.1,17.3,0.9,34.5,2.3,50.9h-49.9
	c-3.6-15.9-5.6-33.1-5.9-50.9H156.9z M167.3,262.1h65.3c-1.9,18.8-4.6,36.1-8.2,50.9h-49C171.9,298.2,169.2,281,167.3,262.1z
	 M240.7,254.6c1.4-16.4,2.3-33.6,2.4-50.9h53.4c-0.3,17.8-2.3,35-5.9,50.9H240.7z M288.8,137.9H240c-1.9-18.6-4.5-35.9-7.9-50.7
	h35.7C276.7,101.6,283.9,118.8,288.8,137.9z M167.8,87.2c-3.4,15-6.1,32.3-7.9,50.7h-48.8c5-19.1,12.1-36.3,21-50.7H167.8z
	 M111.2,262.1H160c1.9,18.7,4.6,36.1,8,50.9h-35.6C123.4,298.6,116.2,281.3,111.2,262.1z M232,313c3.4-14.9,6.2-32.3,8-50.9h48.8
	c-5,19.2-12.2,36.5-21.1,50.9H232z M298.2,254.6c3.5-16,5.5-33.1,5.8-50.9h54.7c-0.4,17.8-3.8,35-9.6,50.9H298.2z M304,196.3
	c-0.2-17.8-2.3-34.9-5.8-50.9H349c5.9,15.9,9.2,33.1,9.6,50.9H304z M296.5,137.9c-4.8-18.8-11.6-36-20.1-50.7h35.2
	c14.5,14.4,26.3,31.6,34.5,50.7H296.5z M262.9,79.7h-32.6c-3.5-13.6-8.5-27.6-15.1-36.5C233.2,47.9,249.7,60.9,262.9,79.7z
	 M222.7,79.7h-45.4c6.6-24.2,14.9-38.5,22.7-38.5S216.1,55.6,222.7,79.7z M169.7,79.7h-32.6c13.3-18.8,29.7-31.8,47.8-36.5
	C178.9,51.3,173.8,64,169.7,79.7z M88.4,87.2h35.2c-8.5,14.7-15.4,31.8-20.1,50.7H53.9C62.1,118.8,73.9,101.6,88.4,87.2z
	 M101.8,145.4c-3.5,16-5.5,33.1-5.8,50.9H41.3c0.4-17.8,3.8-35,9.6-50.9H101.8z M96,203.7c0.2,17.8,2.3,34.9,5.8,50.9H51
	c-5.9-15.9-9.2-33.1-9.6-50.9H96z M137.2,320.5h32.5c3.5,13.5,8.5,27.4,15.1,36.3C166.9,352.1,150.5,339.2,137.2,320.5z
	 M177.4,320.5h45.2c-6.6,24-14.9,38.2-22.6,38.2S183.9,344.5,177.4,320.5z M230.1,320.5h32.6c-13.3,18.7-29.7,31.6-47.7,36.3
	C221.6,347.9,226.6,334,230.1,320.5z M311.3,313h-35.1c8.6-14.7,15.5-32,20.3-50.9h49.6C337.9,281.3,326,298.6,311.3,313z
	 M271.7,79.7c-9.3-14.1-20.2-25.6-32.2-33.5c24,6.2,45.8,17.8,64,33.5H271.7z M128.3,79.7H96.5c18.2-15.7,40-27.3,64-33.5
	C148.5,54.2,137.6,65.6,128.3,79.7z M128.4,320.5c9.2,14,20.1,25.4,32.1,33.2c-23.9-6.1-45.5-17.7-63.7-33.2H128.4z M271.6,320.5
	h31.6c-18.2,15.6-39.9,27.1-63.7,33.2C251.4,345.9,262.3,334.5,271.6,320.5z"/>
</svg>
