<?xml version="1.0" encoding="UTF-8" standalone="no"?>
<!DOCTYPE svg PUBLIC "-//W3C//DTD SVG 1.1//EN" "http://www.w3.org/Graphics/SVG/1.1/DTD/svg11.dtd">
<svg width="100%" height="100%" id="Layer_1" viewBox="0 0 400 400" version="1.1" xmlns="http://www.w3.org/2000/svg" xmlns:xlink="http://www.w3.org/1999/xlink" xml:space="preserve" xmlns:serif="http://www.serif.com/" style="fill-rule:evenodd;clip-rule:evenodd;stroke-linejoin:round;stroke-miterlimit:2;">
    <g transform="matrix(1,0,0,1,-11.6761,-43.4931)">
        <path d="M161.675,326.544C158.802,312.251 151.664,291.918 143.468,280.739C117.781,245.701 101.337,220.578 101.337,185.539C101.337,124.641 150.778,75.2 211.676,75.2C272.574,75.2 322.015,124.641 322.015,185.539C322.015,220.574 305.517,245.611 279.911,280.745C271.745,291.95 264.575,312.272 261.7,326.56C265.772,329.443 268.49,334.352 268.49,339.994L268.49,344.579C268.49,347.672 267.666,350.557 266.254,353.002C267.666,355.447 268.49,358.332 268.49,361.425L268.49,366.01C268.49,372.374 265.032,377.805 260.073,380.449C260.073,381.231 260.073,382.04 260.073,382.853C260.072,390.871 253.572,397.369 245.555,397.369C245.555,397.369 239.413,397.369 239.413,397.369C233.6,406.559 223.345,412.666 211.676,412.666C200.007,412.666 189.751,406.559 183.939,397.369L177.798,397.369C173.948,397.369 170.255,395.839 167.532,393.117C164.809,390.394 163.28,386.701 163.28,382.851L163.28,380.45C158.321,377.806 154.863,372.374 154.863,366.01L154.863,361.425C154.863,358.332 155.686,355.448 157.098,353.002C155.686,350.557 154.863,347.672 154.863,344.579L154.863,339.994C154.863,334.342 157.591,329.425 161.675,326.544ZM253.075,323.835C256.318,308.491 264.015,287.277 272.637,275.445C296.879,242.181 313.015,218.708 313.015,185.539C313.015,129.609 267.606,84.2 211.676,84.2C155.746,84.2 110.337,129.609 110.337,185.539C110.337,218.704 126.413,242.254 150.726,275.417C159.388,287.232 167.065,308.478 170.303,323.835L253.075,323.835ZM253.235,373.169C256.792,373.169 259.49,369.867 259.49,366.01L259.49,361.425C259.49,359.346 258.713,357.459 257.427,356.126L254.416,353.002L257.427,349.879C258.713,348.545 259.49,346.658 259.49,344.579L259.49,339.994C259.49,336.137 256.792,332.835 253.235,332.835L170.118,332.835C166.56,332.835 163.863,336.137 163.863,339.994L163.863,344.579C163.863,346.658 164.64,348.546 165.925,349.88L168.934,353.002L165.925,356.125C164.64,357.458 163.863,359.346 163.863,361.425L163.863,366.01C163.863,369.867 166.56,373.169 170.118,373.169L253.235,373.169ZM172.28,382.169L172.28,382.851C172.28,384.314 172.861,385.718 173.896,386.753C174.931,387.787 176.334,388.369 177.798,388.369L189.274,388.369L190.534,390.797C194.497,398.438 202.481,403.666 211.676,403.666C220.871,403.666 228.855,398.438 232.818,390.797L234.078,388.369L245.555,388.369C248.602,388.369 251.072,385.899 251.073,382.851C251.073,382.623 251.073,382.396 251.073,382.169L172.28,382.169ZM209.583,148.228C208.482,146.002 209.395,143.301 211.621,142.2C213.847,141.099 216.549,142.012 217.65,144.238L241.989,193.451L196.457,193.451L217.5,229.395C218.754,231.539 218.033,234.298 215.89,235.552C213.746,236.807 210.987,236.086 209.733,233.942L180.76,184.451C180.76,184.451 227.498,184.451 227.498,184.451L209.583,148.228Z"/>
    </g>
</svg>
