<?xml version="1.0" encoding="utf-8"?>
<!-- Generator: Adobe Illustrator 28.0.0, SVG Export Plug-In . SVG Version: 6.00 Build 0)  -->
<svg version="1.1" id="Layer_1" xmlns="http://www.w3.org/2000/svg" xmlns:xlink="http://www.w3.org/1999/xlink" x="0px" y="0px"
	 viewBox="0 0 400 400" style="enable-background:new 0 0 400 400;" xml:space="preserve">
<g transform="translate(0,-952.36218)">
	<g>
		<path d="M7.6,992c-3.1,0.1-4.6,2.7-4.6,4.6v284c0,2.4,2.2,4.6,4.6,4.6H154c11.2,0,21.3,1.5,28.5,5.2c7.2,3.6,11.5,8.9,12.9,18.3
			c0,2.4,2.2,4,4.6,4s4.5-1.6,4.6-4c1.3-9.5,5.7-14.7,12.9-18.3s17.3-5.2,28.5-5.2h146.5c2.4,0,4.6-2.2,4.6-4.6v-284
			c0-2.4-2.2-4.6-4.6-4.6H246c-13.4,0-25.7,3.2-35.1,10c-4.5,3.3-8.2,7.6-10.9,12.6c-2.7-5-6.4-9.3-10.9-12.6
			c-9.4-6.9-21.7-10-35.1-10C154,992,7.6,992,7.6,992z M12.2,1001.2H154c11.9,0,22.5,2.8,29.8,8.2c7.3,5.3,11.6,13,11.6,23.9v256.3
			c-2.5-2.9-5.3-5.5-8.7-7.3c-9.3-4.7-20.7-6-32.6-6.2H12.2V1001.2z M246,1001.2h141.9v274.9H246c-11.9,0-23.4,1.4-32.6,6.2
			c-3.4,1.7-6.3,4.3-8.7,7.2v-256.1c0-10.9,4.3-18.6,11.6-23.9C223.5,1004,234.1,1001.2,246,1001.2z M48.8,1051.6
			c-2.5,0-4.6,2.1-4.6,4.6c0,2.5,2.1,4.6,4.6,4.6h110c2.5,0,4.6-2.1,4.6-4.6c0-2.5-2.1-4.6-4.6-4.6H48.8z M241.2,1051.6
			c-2.5,0-4.6,2.1-4.6,4.6c0,2.5,2.1,4.6,4.6,4.6h110c2.5,0,4.6-2.1,4.6-4.6c0-2.5-2.1-4.6-4.6-4.6H241.2z M48.8,1092.8
			c-2.5,0-4.6,2.1-4.6,4.6c0,2.5,2.1,4.6,4.6,4.6h110c2.5,0,4.6-2.1,4.6-4.6c0-2.5-2.1-4.6-4.6-4.6H48.8z M241.2,1092.8
			c-2.5,0-4.6,2.1-4.6,4.6c0,2.5,2.1,4.6,4.6,4.6h110c2.5,0,4.6-2.1,4.6-4.6c0-2.5-2.1-4.6-4.6-4.6H241.2z M48.8,1134
			c-2.5,0-4.6,2.1-4.6,4.6c0,2.5,2.1,4.6,4.6,4.6h110c2.5,0,4.6-2.1,4.6-4.6c0-2.5-2.1-4.6-4.6-4.6H48.8z M241.2,1134
			c-2.5,0-4.6,2.1-4.6,4.6c0,2.5,2.1,4.6,4.6,4.6h110c2.5,0,4.6-2.1,4.6-4.6c0-2.5-2.1-4.6-4.6-4.6H241.2z M48.8,1175.3
			c-2.5,0-4.6,2.1-4.6,4.6c0,2.5,2.1,4.6,4.6,4.6h110c2.5,0,4.6-2.1,4.6-4.6c0-2.5-2.1-4.6-4.6-4.6H48.8z M241.2,1175.3
			c-2.5,0-4.6,2.1-4.6,4.6c0,2.5,2.1,4.6,4.6,4.6h110c2.5,0,4.6-2.1,4.6-4.6c0-2.5-2.1-4.6-4.6-4.6H241.2z M48.8,1216.5
			c-2.5,0-4.6,2.1-4.6,4.6c0,2.5,2.1,4.6,4.6,4.6h110c2.5,0,4.6-2.1,4.6-4.6c0-2.5-2.1-4.6-4.6-4.6H48.8z M241.2,1216.5
			c-2.5,0-4.6,2.1-4.6,4.6c0,2.5,2.1,4.6,4.6,4.6h110c2.5,0,4.6-2.1,4.6-4.6c0-2.5-2.1-4.6-4.6-4.6H241.2z"/>
	</g>
</g>
</svg>
