<?xml version="1.0" encoding="utf-8"?>
<!-- Generator: Adobe Illustrator 28.0.0, SVG Export Plug-In . SVG Version: 6.00 Build 0)  -->
<svg version="1.1" id="Layer_1" xmlns="http://www.w3.org/2000/svg" xmlns:xlink="http://www.w3.org/1999/xlink" x="0px" y="0px"
	 viewBox="0 0 400 400" style="enable-background:new 0 0 400 400;" xml:space="preserve">
<g>
	<path d="M154.2,212.1c-5,0-9.2,4.1-9.2,9.2c0,5,4.1,9,9.2,9c4.9,0,8.9-4,8.9-9C163.1,216.2,159.1,212.1,154.2,212.1z"/>
	<path d="M115.6,125.8c1.2,0.2,2.4-0.1,3.4-0.9c1.1-0.8,1.8-2.1,1.8-3.3c3-20.4,19.8-29.5,35-29.5c12,0.1,21.7,3.6,28,9.9
		c6.1,6.4,8.6,14.6,7.4,24.5c-1.7,12.8-10.8,21.5-20.5,30.8c-9.6,9.2-20.5,19.7-20.2,35.6c0.1,2.1,2,4.4,4.4,4.4c0.1,0,0.2,0,0.3,0
		c2.4,0,4.6-2.2,4.6-4.6c-0.3-11.9,8.3-20.1,17.3-28.8l1.1-1c9.5-9.1,20.2-19.3,22.2-35.2c1.6-12.6-2-24-10-32
		c-8-8.3-20.3-12.8-34.5-12.8c-0.1,0-0.2,0-0.3,0c-19.2,0-40.3,12.7-43.7,37.1c-0.3,1.2,0,2.6,0.7,3.7
		C113.3,125,114.4,125.7,115.6,125.8z"/>
	<path d="M355.1,143.8h-20.2V97.3c0-30-24.4-54.4-54.5-54.4H56.5C26.5,42.9,2,67.3,2,97.3v126.1c0,30,24.4,54.4,54.5,54.4h3.2v29.7
		c0,4.9,1.8,8.5,5,10.3c3.2,1.9,7.4,1.5,11.4-0.9l63.9-39.1h51.4v5.1c0,23.5,19.2,42.6,42.7,42.6h56.8l48.7,29.9
		c1.8,1.1,3.7,1.7,5.6,1.7c1.5,0,3-0.4,4.3-1.1c2.8-1.6,4.3-4.7,4.3-8.6v-21.7h1.4c23.6,0,42.9-19.1,42.9-42.6v-96.5
		C398,162.9,378.8,143.8,355.1,143.8z M64.3,268.5h-7.8c-25,0-45.4-20.2-45.4-45.1V97.3c0-24.9,20.4-45.2,45.4-45.2h223.9
		c25,0,45.4,20.3,45.4,45.2v46.5H234c-23.6,0-42.7,19.1-42.7,42.6v82.1h-52.5c-0.9,0-1.8,0.3-2.4,0.8l-65,39.7
		c-1.2,0.7-1.7,0.7-1.9,0.7l-0.1-0.1c0,0-0.4-0.4-0.4-2.2v-34.3C68.9,270.7,66.7,268.5,64.3,268.5z M200.4,186.4
		c0-18.8,14.8-33.5,33.6-33.5h121.1c18.6,0,33.8,15,33.8,33.5v96.5c0,18.5-15.1,33.5-33.8,33.5h-6c-2.5,0-4.6,2.1-4.6,4.6v26.3
		c0,0.1,0,0.3,0,0.4c0,0-0.1-0.1-0.2-0.1l-50-30.6c-0.8-0.4-1.6-0.6-2.2-0.6H234c-18.9,0-33.6-14.7-33.6-33.5V186.4z"/>
	<path d="M291,288.9c5,0,9-4.1,9-9.2c0-2.4-0.9-4.6-2.6-6.3c-1.7-1.7-4-2.7-6.4-2.7c-5,0-9,4-9,9C282,284.8,286,288.9,291,288.9z"/>
	<path d="M291,261.4c1.2,0,2.5-0.6,3.4-1.5c0.8-0.9,1.3-2,1.2-3l0-67.7c0.1-1.2-0.4-2.4-1.3-3.3c-1-1-2.4-1.5-3.7-1.4l-0.4,0
		l-0.1,0.1l-0.1,0c-2,0.5-3.6,2.5-3.6,4.5v67.8C286.4,259.3,288.6,261.4,291,261.4z"/>
</g>
</svg>
