<svg id="Layer_1" data-name="Layer 1" xmlns="http://www.w3.org/2000/svg" xmlns:xlink="http://www.w3.org/1999/xlink" viewBox="0 0 969.52 390.39">
  <defs>
    <symbol id="logo" data-name="logo" viewBox="0 0 969.52 390.39">
      <g>
        <path d="M0,170.44V0H31.65V138.79h69.76v31.65Z"/>
        <path d="M182.37,0h36.28l61.84,170.44h-33.6L236.3,141.22H164.71l-10.59,29.22h-33.6Zm-6,109.57h48.21L200.38,43.22Z"/>
        <path d="M408.68,170.44,365.1,0h32.75l28.73,112.61L455.19,0h29L512.9,112.61,541.63,0h32.75L531,170.44H495l-25.32-99-25.08,99Z"/>
        <path d="M599.21,170.44V0H706.59V31.65H630.86V63.31H690.4V95H630.86v43.83h75.73v31.65Z"/>
        <path d="M736.65,170.44V0h31.66V138.79h69.76v31.65Z"/>
        <path d="M867.77,170.44V0h31.65V138.79h69.76v31.65Z"/>
      </g>
      <g>
        <path d="M.26,387.64V239.43H56.15a40.74,40.74,0,0,1,22.07,6.19,45.84,45.84,0,0,1,21.55,39.12,44.5,44.5,0,0,1-6,22.76,46.5,46.5,0,0,1-15.94,16.41,40.55,40.55,0,0,1-21.7,6.14H32v57.59ZM32,298.29H52.55a14.41,14.41,0,0,0,7.73-2.17,16.58,16.58,0,0,0,5.61-5.77,15.93,15.93,0,0,0,0-15.88,16.58,16.58,0,0,0-5.61-5.77,14.32,14.32,0,0,0-7.73-2.17H32Z"/>
        <path d="M120.94,387.64V239.43H152.7V387.64Z"/>
        <path d="M181.28,387.64V239.43h94.43v31.76H213v21.17h48.27v31.76H213v31.76h62.67v31.76ZM219,227.78l8.47-30.49h31.76l-19.05,30.49Z"/>
        <path d="M411.21,239.43v31.76H368.87V387.64H337.11V271.19H294.76V239.43Z"/>
        <path d="M492.72,390.39a67.77,67.77,0,0,1-28.26-6,73.51,73.51,0,0,1-23.29-16.56,78.46,78.46,0,0,1-15.77-24.51,80.49,80.49,0,0,1,0-59.6,78.46,78.46,0,0,1,15.77-24.51,73.67,73.67,0,0,1,23.29-16.56,69.94,69.94,0,0,1,56.64,0,73.78,73.78,0,0,1,23.29,16.56,79.25,79.25,0,0,1,0,108.62A73.62,73.62,0,0,1,521.1,384.4,68.08,68.08,0,0,1,492.72,390.39Zm0-31.76a36.61,36.61,0,0,0,15.94-3.55,42.77,42.77,0,0,0,13.18-9.74A45.79,45.79,0,0,0,530.78,331a48.86,48.86,0,0,0,0-34.94,45.79,45.79,0,0,0-8.94-14.34A42.77,42.77,0,0,0,508.66,272a37.54,37.54,0,0,0-31.87,0,42.77,42.77,0,0,0-13.18,9.74,45.79,45.79,0,0,0-8.94,14.34,48.86,48.86,0,0,0,0,34.94,45.79,45.79,0,0,0,8.94,14.34,42.77,42.77,0,0,0,13.18,9.74A36.6,36.6,0,0,0,492.72,358.63Z"/>
        <path d="M583.76,387.64V239.43h34.3l54.21,90.83V239.43H704V387.64H669.73L615.52,296.8v90.84Z"/>
        <path d="M729.43,387.64V239.43h34.3l54.2,90.83V239.43h31.76V387.64h-34.3l-54.2-90.84v90.84Z"/>
        <path d="M875.09,387.64V239.43h94.43v31.76H906.85v21.17h48.28v31.76H906.85v31.76h62.67v31.76Z"/>
      </g>
    </symbol>
  </defs>
  <use width="969.52" height="390.39" xlink:href="#logo"/>
</svg>
