<svg id="Layer_1" data-name="Layer 1" xmlns="http://www.w3.org/2000/svg" xmlns:xlink="http://www.w3.org/1999/xlink" viewBox="0 0 1200 1200">
  <defs>
    <symbol id="logo" data-name="logo" viewBox="0 0 969.52 390.39">
      <g>
        <path d="M0,170.44V0H31.65V138.79h69.76v31.65Z"/>
        <path d="M182.37,0h36.28l61.84,170.44h-33.6L236.3,141.22H164.71l-10.59,29.22h-33.6Zm-6,109.57h48.21L200.38,43.22Z"/>
        <path d="M408.68,170.44,365.1,0h32.75l28.73,112.61L455.19,0h29L512.9,112.61,541.63,0h32.75L531,170.44H495l-25.32-99-25.08,99Z"/>
        <path d="M599.21,170.44V0H706.59V31.65H630.86V63.31H690.4V95H630.86v43.83h75.73v31.65Z"/>
        <path d="M736.65,170.44V0h31.66V138.79h69.76v31.65Z"/>
        <path d="M867.77,170.44V0h31.65V138.79h69.76v31.65Z"/>
      </g>
      <g>
        <path d="M.26,387.64V239.43H56.15a40.74,40.74,0,0,1,22.07,6.19,45.84,45.84,0,0,1,21.55,39.12,44.5,44.5,0,0,1-6,22.76,46.5,46.5,0,0,1-15.94,16.41,40.55,40.55,0,0,1-21.7,6.14H32v57.59ZM32,298.29H52.55a14.41,14.41,0,0,0,7.73-2.17,16.58,16.58,0,0,0,5.61-5.77,15.93,15.93,0,0,0,0-15.88,16.58,16.58,0,0,0-5.61-5.77,14.32,14.32,0,0,0-7.73-2.17H32Z"/>
        <path d="M120.94,387.64V239.43H152.7V387.64Z"/>
        <path d="M181.28,387.64V239.43h94.43v31.76H213v21.17h48.27v31.76H213v31.76h62.67v31.76ZM219,227.78l8.47-30.49h31.76l-19.05,30.49Z"/>
        <path d="M411.21,239.43v31.76H368.87V387.64H337.11V271.19H294.76V239.43Z"/>
        <path d="M492.72,390.39a67.77,67.77,0,0,1-28.26-6,73.51,73.51,0,0,1-23.29-16.56,78.46,78.46,0,0,1-15.77-24.51,80.49,80.49,0,0,1,0-59.6,78.46,78.46,0,0,1,15.77-24.51,73.67,73.67,0,0,1,23.29-16.56,69.94,69.94,0,0,1,56.64,0,73.78,73.78,0,0,1,23.29,16.56,79.25,79.25,0,0,1,0,108.62A73.62,73.62,0,0,1,521.1,384.4,68.08,68.08,0,0,1,492.72,390.39Zm0-31.76a36.61,36.61,0,0,0,15.94-3.55,42.77,42.77,0,0,0,13.18-9.74A45.79,45.79,0,0,0,530.78,331a48.86,48.86,0,0,0,0-34.94,45.79,45.79,0,0,0-8.94-14.34A42.77,42.77,0,0,0,508.66,272a37.54,37.54,0,0,0-31.87,0,42.77,42.77,0,0,0-13.18,9.74,45.79,45.79,0,0,0-8.94,14.34,48.86,48.86,0,0,0,0,34.94,45.79,45.79,0,0,0,8.94,14.34,42.77,42.77,0,0,0,13.18,9.74A36.6,36.6,0,0,0,492.72,358.63Z"/>
        <path d="M583.76,387.64V239.43h34.3l54.21,90.83V239.43H704V387.64H669.73L615.52,296.8v90.84Z"/>
        <path d="M729.43,387.64V239.43h34.3l54.2,90.83V239.43h31.76V387.64h-34.3l-54.2-90.84v90.84Z"/>
        <path d="M875.09,387.64V239.43h94.43v31.76H906.85v21.17h48.28v31.76H906.85v31.76h62.67v31.76Z"/>
      </g>
    </symbol>
  </defs>
  <g>
    <path d="M256.58,908H243.51v50H228.56l.07-50h-9.95v-15h9.95l-.07-20.41h14.95v20.41h13.07Z"/>
    <path d="M295.32,959.78A30.19,30.19,0,0,1,279,955.16a34.47,34.47,0,0,1-16.15-29.58,35,35,0,0,1,9.52-24.27,32.53,32.53,0,0,1,10.37-7.38,31.17,31.17,0,0,1,29,2,34.14,34.14,0,0,1,11.77,12.41,35.38,35.38,0,0,1-5.14,41.44A32.43,32.43,0,0,1,308,957.11,30.23,30.23,0,0,1,295.32,959.78Zm0-14.95a15.85,15.85,0,0,0,9-2.64,18.62,18.62,0,0,0,6.27-7.05,21,21,0,0,0-.07-19.27,18.8,18.8,0,0,0-6.33-7,16.29,16.29,0,0,0-17.78.06,18.86,18.86,0,0,0-6.31,7.08,20.6,20.6,0,0,0-2.3,9.62,19.84,19.84,0,0,0,2.4,9.75,18.92,18.92,0,0,0,6.4,6.93A15.89,15.89,0,0,0,295.32,944.83Z"/>
    <path d="M334.19,933.91V893.08h14.95v37a14.06,14.06,0,0,0,2,7.35,15.17,15.17,0,0,0,5.3,5.29,13.83,13.83,0,0,0,7.28,2,14.09,14.09,0,0,0,7.41-2,14.89,14.89,0,0,0,5.26-5.29,14.23,14.23,0,0,0,1.95-7.35v-37h14.95l.07,65H378.39l-.07-6.37a23.4,23.4,0,0,1-8.06,5.92,24.45,24.45,0,0,1-10.2,2.15,25.16,25.16,0,0,1-13-3.48,26.24,26.24,0,0,1-9.36-9.36A25.21,25.21,0,0,1,334.19,933.91Z"/>
    <path d="M441,908H427.91v50H413l.06-50h-9.95v-15H413L413,872.67h14.94v20.41H441Z"/>
    <path d="M479.72,959.78a30.19,30.19,0,0,1-16.35-4.62,34,34,0,0,1-11.76-12.41,34.53,34.53,0,0,1-4.39-17.23,35,35,0,0,1,9.52-24.21,32.64,32.64,0,0,1,10.37-7.38,31.4,31.4,0,0,1,26.46.52,32.35,32.35,0,0,1,10.72,8.68,35.53,35.53,0,0,1,6.47,12.61,36.35,36.35,0,0,1,1,15H463.28a19.26,19.26,0,0,0,3.08,7.15,16.21,16.21,0,0,0,13.36,7,15,15,0,0,0,8.12-2.15,18.89,18.89,0,0,0,6.12-6l15.2,3.51a34.39,34.39,0,0,1-11.83,14.14A30,30,0,0,1,479.72,959.78Zm-17-40.31h33.94a17.67,17.67,0,0,0-3.09-7.63,18.59,18.59,0,0,0-6.05-5.46,15.92,15.92,0,0,0-15.56,0,18.3,18.3,0,0,0-6,5.43A20.11,20.11,0,0,0,462.75,919.47Z"/>
    <path d="M555.05,958.08v-97.5h15v97.5Z"/>
    <path d="M580.4,901l4-33.93h15l-9,33.93Z"/>
    <path d="M650.21,893.08H665.1v65h-15l-.65-8.58a21.48,21.48,0,0,1-7.32,7.45,20.22,20.22,0,0,1-10.82,2.83A33.31,33.31,0,0,1,617.87,957a35.68,35.68,0,0,1-11-7.5,35.15,35.15,0,0,1-7.47-11.08,34,34,0,0,1-2.7-13.53,33.57,33.57,0,0,1,20.44-31.06,32.73,32.73,0,0,1,13-2.61,23.6,23.6,0,0,1,11.92,3,29.2,29.2,0,0,1,8.81,7.67ZM631,945.41a16.62,16.62,0,0,0,9.32-2.66,18.2,18.2,0,0,0,6.34-7.19,23.11,23.11,0,0,0,0-20,18,18,0,0,0-6.34-7.15,16.76,16.76,0,0,0-9.32-2.63,18.11,18.11,0,0,0-9.66,2.66,20,20,0,0,0-9.45,17.16,19.34,19.34,0,0,0,2.63,10,20.38,20.38,0,0,0,7,7.16A17.89,17.89,0,0,0,631,945.41Z"/>
    <path d="M737.25,917.13v41h-15V921a14,14,0,0,0-2-7.35,15.14,15.14,0,0,0-5.29-5.29,14.55,14.55,0,0,0-14.69,0,15.17,15.17,0,0,0-5.3,5.29,14.06,14.06,0,0,0-2,7.35v37.11H678.16l-.06-65h14.95v6.25a23.24,23.24,0,0,1,8.09-5.92,24.7,24.7,0,0,1,10.24-2.15,25,25,0,0,1,13,3.48,26.56,26.56,0,0,1,9.36,9.36A25,25,0,0,1,737.25,917.13Z"/>
    <path d="M809.4,917.13v41H794.45V921a14.07,14.07,0,0,0-2-7.35,15.14,15.14,0,0,0-5.29-5.29,14.55,14.55,0,0,0-14.69,0,15.17,15.17,0,0,0-5.3,5.29,14.06,14.06,0,0,0-2,7.35v37.11H750.31l-.06-65h15v6.25a23.24,23.24,0,0,1,8.09-5.92,24.7,24.7,0,0,1,10.24-2.15,25,25,0,0,1,13,3.48,26.56,26.56,0,0,1,9.36,9.36A25,25,0,0,1,809.4,917.13Z"/>
    <path d="M849.7,959.78a30.17,30.17,0,0,1-16.35-4.62,34.14,34.14,0,0,1-11.77-12.41,35.44,35.44,0,0,1,5.14-41.44,32.6,32.6,0,0,1,10.36-7.38,31.4,31.4,0,0,1,26.46.52,32.25,32.25,0,0,1,10.72,8.68,35.37,35.37,0,0,1,6.47,12.61,36.35,36.35,0,0,1,1,15H833.25a19.11,19.11,0,0,0,3.09,7.15,16.18,16.18,0,0,0,13.36,7,15,15,0,0,0,8.12-2.15,18.86,18.86,0,0,0,6.11-6l15.21,3.51a34.47,34.47,0,0,1-11.83,14.14A30,30,0,0,1,849.7,959.78Zm-17-40.31h33.93a17.42,17.42,0,0,0-3.09-7.63,18.56,18.56,0,0,0-6-5.46,15.94,15.94,0,0,0-15.57,0,18.27,18.27,0,0,0-6,5.43A20,20,0,0,0,832.73,919.47Zm13.06-33.54L851,867.21h14.88l-10.14,18.72Z"/>
    <path d="M921.13,959.78a30.19,30.19,0,0,1-16.35-4.62A34,34,0,0,1,893,942.75a36.08,36.08,0,0,1-1.86-30.52,35,35,0,0,1,7-10.92,32.64,32.64,0,0,1,10.37-7.38,31.38,31.38,0,0,1,26.45.52,32.28,32.28,0,0,1,10.73,8.68,35.53,35.53,0,0,1,6.47,12.61,36.35,36.35,0,0,1,1,15H904.68a19.44,19.44,0,0,0,3.09,7.15,16.21,16.21,0,0,0,13.36,7,15,15,0,0,0,8.12-2.15,18.77,18.77,0,0,0,6.11-6l15.21,3.51a34.39,34.39,0,0,1-11.83,14.14A30,30,0,0,1,921.13,959.78Zm-17-40.31h33.93a17.53,17.53,0,0,0-3.08-7.63,18.59,18.59,0,0,0-6-5.46,15.94,15.94,0,0,0-15.57,0,18.37,18.37,0,0,0-6,5.43A20.11,20.11,0,0,0,904.16,919.47Z"/>
    <path d="M970.46,959.78a7.46,7.46,0,0,1-5.55-2.28,7.65,7.65,0,0,1-2.25-5.59,7.3,7.3,0,0,1,2.25-5.4,7.59,7.59,0,0,1,5.55-2.21,7.41,7.41,0,0,1,5.37,2.21,7.33,7.33,0,0,1,2.24,5.4,7.68,7.68,0,0,1-2.24,5.59A7.28,7.28,0,0,1,970.46,959.78Zm-6.37-29V867.08H976.7v63.71Z"/>
  </g>
  <g>
    <path d="M488.05,352.41H473.1v-97.5h14.95v8.78a25.25,25.25,0,0,1,8-7.57,21.48,21.48,0,0,1,11.31-2.9,33.22,33.22,0,0,1,13.32,2.67,34.69,34.69,0,0,1,10.89,7.38,34.2,34.2,0,0,1,7.34,10.88,33.4,33.4,0,0,1,2.64,13.26,34.11,34.11,0,0,1-10,24.28,34.86,34.86,0,0,1-10.89,7.38,33.22,33.22,0,0,1-13.32,2.66,21.31,21.31,0,0,1-11.31-2.92,26,26,0,0,1-8-7.54Zm19.18-84.82a16.33,16.33,0,0,0-9.3,2.7,18.77,18.77,0,0,0-6.34,7.18,21.37,21.37,0,0,0-2.3,9.94,21.82,21.82,0,0,0,2.27,10,18.17,18.17,0,0,0,6.34,7.18,16.61,16.61,0,0,0,9.33,2.67,18.16,18.16,0,0,0,9.55-2.63,20,20,0,0,0,7-7.15,20.35,20.35,0,0,0,0-20,20.05,20.05,0,0,0-7-7.21A17.86,17.86,0,0,0,507.23,267.59Z"/>
    <path d="M580.54,321.6A30.13,30.13,0,0,1,564.2,317,34.51,34.51,0,0,1,548,287.41a35,35,0,0,1,9.53-24.27,32.49,32.49,0,0,1,10.36-7.38,31.19,31.19,0,0,1,29,1.95,34.14,34.14,0,0,1,11.77,12.41,35.38,35.38,0,0,1-5.14,41.44,32.7,32.7,0,0,1-10.33,7.38A30.27,30.27,0,0,1,580.54,321.6Zm0-15a15.8,15.8,0,0,0,9-2.63,18.56,18.56,0,0,0,6.28-7,21,21,0,0,0-.07-19.27,18.85,18.85,0,0,0-6.34-7.06,16.3,16.3,0,0,0-17.77.07,18.86,18.86,0,0,0-6.31,7.08,20.48,20.48,0,0,0-2.31,9.62,19.85,19.85,0,0,0,2.41,9.75,18.92,18.92,0,0,0,6.4,6.93A15.88,15.88,0,0,0,580.54,306.65Z"/>
    <path d="M619.41,295.73V254.91h15v37a13.94,13.94,0,0,0,2,7.34,15.09,15.09,0,0,0,5.29,5.3,13.94,13.94,0,0,0,7.28,2,14.17,14.17,0,0,0,7.41-2,14.87,14.87,0,0,0,5.27-5.3,14.19,14.19,0,0,0,1.95-7.34v-37h15l.06,65H663.61l-.06-6.37a23.4,23.4,0,0,1-8.06,5.92,24.49,24.49,0,0,1-10.21,2.14,25.21,25.21,0,0,1-13-3.47,26.24,26.24,0,0,1-9.36-9.36A25.13,25.13,0,0,1,619.41,295.73Z"/>
    <path d="M691.63,319.91l-.07-65h15v6.24a23.43,23.43,0,0,1,8.09-5.91,24.74,24.74,0,0,1,10.24-2.15,26.31,26.31,0,0,1,7.22,1l-6,15a13.42,13.42,0,0,0-4.94-1,14,14,0,0,0-7.35,2,15.06,15.06,0,0,0-5.29,5.29,14,14,0,0,0-2,7.35v37.11Z"/>
  </g>
  <use width="969.52" height="390.39" transform="translate(114.74 413.18)" xlink:href="#logo"/>
</svg>
