<?xml version="1.0" encoding="UTF-8" standalone="no"?>
<!DOCTYPE svg PUBLIC "-//W3C//DTD SVG 1.1//EN" "http://www.w3.org/Graphics/SVG/1.1/DTD/svg11.dtd">
<svg width="100%" height="100%" viewBox="0 0 1097 114" version="1.1" xmlns="http://www.w3.org/2000/svg" xmlns:xlink="http://www.w3.org/1999/xlink" xml:space="preserve" xmlns:serif="http://www.serif.com/" style="fill-rule:evenodd;clip-rule:evenodd;stroke-linejoin:round;stroke-miterlimit:2;">
    <g transform="matrix(1,0,0,1,-208.442,-519.904)">
        <path d="M209.147,633.124L209.147,545.624L224.397,545.624L224.397,617.874L260.806,617.874L260.806,633.124L209.147,633.124Z"/>
    </g>
    <g transform="matrix(1,0,0,1,-208.442,-519.904)">
        <path d="M301.515,545.624L319.053,545.624L350.847,633.124L334.668,633.124L329.035,617.624L291.556,617.624L285.922,633.124L269.744,633.124L301.515,545.624ZM297.141,602.374L323.428,602.374L310.244,566.287L297.141,602.374Z"/>
    </g>
    <g transform="matrix(1,0,0,1,-208.442,-519.904)">
        <path d="M413.313,633.124L390.938,545.624L406.682,545.624L421.932,605.427L437.159,545.624L451.085,545.624L466.334,605.427L481.563,545.624L497.307,545.624L475.057,633.124L457.694,633.124L444.122,580.116L430.632,633.124L413.313,633.124Z"/>
    </g>
    <g transform="matrix(1,0,0,1,-208.442,-519.904)">
        <path d="M510.71,633.124L510.71,545.624L565.585,545.624L565.585,560.874L525.96,560.874L525.96,578.624L557.369,578.624L557.369,593.874L525.96,593.874L525.96,617.874L565.585,617.874L565.585,633.124L510.71,633.124Z"/>
    </g>
    <g transform="matrix(1,0,0,1,-208.442,-519.904)">
        <path d="M580.147,633.124L580.147,545.624L595.397,545.624L595.397,617.874L631.807,617.874L631.807,633.124L580.147,633.124Z"/>
    </g>
    <g transform="matrix(1,0,0,1,-208.442,-519.904)">
        <path d="M645.557,633.124L645.557,545.624L660.807,545.624L660.807,617.874L697.216,617.874L697.216,633.124L645.557,633.124Z"/>
    </g>
    <g transform="matrix(1,0,0,1,-208.442,-519.904)">
        <path d="M740.966,633.124L740.966,545.624L772.216,545.624C776.964,545.624 781.261,546.814 785.106,549.193C788.95,551.572 792.008,554.757 794.277,558.746C796.547,562.736 797.682,567.14 797.682,571.958C797.682,576.846 796.52,581.282 794.195,585.265C791.87,589.248 788.775,592.419 784.909,594.777C781.043,597.136 776.812,598.315 772.216,598.315L756.216,598.315L756.216,633.124L740.966,633.124ZM756.216,583.065L770.594,583.065C772.757,583.065 774.734,582.521 776.524,581.433C778.315,580.346 779.747,578.886 780.821,577.054C781.895,575.222 782.432,573.174 782.432,570.911C782.432,568.649 781.895,566.602 780.821,564.77C779.747,562.938 778.315,561.478 776.524,560.39C774.734,559.303 772.757,558.759 770.594,558.759L756.216,558.759L756.216,583.065Z"/>
    </g>
    <g transform="matrix(1,0,0,1,-208.442,-519.904)">
        <rect x="812.245" y="545.624" width="15.25" height="87.5"/>
    </g>
    <g transform="matrix(1,0,0,1,-208.442,-519.904)">
        <path d="M844.37,633.124L844.37,545.624L899.245,545.624L899.245,560.874L859.62,560.874L859.62,578.624L891.057,578.624L891.057,593.874L859.62,593.874L859.62,617.874L899.245,617.874L899.245,633.124L844.37,633.124ZM867.245,538.749L872.245,520.749L887.495,520.749L877.37,538.749L867.245,538.749Z"/>
    </g>
    <g transform="matrix(1,0,0,1,-208.442,-519.904)">
        <path d="M979.223,545.624L979.223,560.874L952.473,560.874L952.473,633.124L937.222,633.124L937.222,560.874L910.495,560.874L910.495,545.624L979.223,545.624Z"/>
    </g>
    <g transform="matrix(1,0,0,1,-208.442,-519.904)">
        <path d="M1027.35,634.749C1021.43,634.749 1015.87,633.572 1010.66,631.218C1005.45,628.864 1000.87,625.603 996.911,621.437C992.952,617.27 989.848,612.447 987.598,606.968C985.348,601.489 984.223,595.624 984.223,589.374C984.223,583.124 985.348,577.26 987.598,571.781C989.848,566.301 992.952,561.478 996.911,557.312C1000.87,553.145 1005.45,549.885 1010.66,547.531C1015.87,545.176 1021.43,543.999 1027.35,543.999C1033.31,543.999 1038.89,545.176 1044.1,547.531C1049.31,549.885 1053.89,553.145 1057.85,557.312C1061.81,561.478 1064.9,566.301 1067.13,571.781C1069.36,577.26 1070.47,583.124 1070.47,589.374C1070.47,595.624 1069.36,601.489 1067.13,606.968C1064.9,612.447 1061.81,617.27 1057.85,621.437C1053.89,625.603 1049.31,628.864 1044.1,631.218C1038.89,633.572 1033.31,634.749 1027.35,634.749ZM1027.35,619.499C1031.19,619.499 1034.79,618.706 1038.15,617.121C1041.52,615.535 1044.48,613.36 1047.04,610.594C1049.6,607.828 1051.61,604.63 1053.05,600.999C1054.5,597.368 1055.22,593.493 1055.22,589.374C1055.22,585.241 1054.5,581.355 1053.04,577.717C1051.59,574.078 1049.58,570.88 1047.02,568.121C1044.45,565.363 1041.49,563.195 1038.13,561.616C1034.77,560.038 1031.18,559.249 1027.35,559.249C1023.5,559.249 1019.9,560.042 1016.54,561.628C1013.18,563.213 1010.22,565.389 1007.66,568.155C1005.09,570.92 1003.09,574.119 1001.64,577.75C1000.2,581.381 999.473,585.256 999.473,589.374C999.473,593.522 1000.2,597.412 1001.65,601.043C1003.11,604.674 1005.11,607.872 1007.68,610.638C1010.24,613.404 1013.2,615.572 1016.56,617.143C1019.92,618.714 1023.52,619.499 1027.35,619.499Z"/>
    </g>
    <g transform="matrix(1,0,0,1,-208.442,-519.904)">
        <path d="M1083.16,633.124L1083.16,545.624L1099.65,545.624L1136.61,605.571L1136.61,545.624L1151.86,545.624L1151.86,633.124L1135.4,633.124L1098.41,573.178L1098.41,633.124L1083.16,633.124Z"/>
    </g>
    <g transform="matrix(1,0,0,1,-208.442,-519.904)">
        <path d="M1166.86,633.124L1166.86,545.624L1183.35,545.624L1220.32,605.571L1220.32,545.624L1235.57,545.624L1235.57,633.124L1219.1,633.124L1182.11,573.178L1182.11,633.124L1166.86,633.124Z"/>
    </g>
    <g transform="matrix(1,0,0,1,-208.442,-519.904)">
        <path d="M1250.57,633.124L1250.57,545.624L1305.44,545.624L1305.44,560.874L1265.82,560.874L1265.82,578.624L1297.23,578.624L1297.23,593.874L1265.82,593.874L1265.82,617.874L1305.44,617.874L1305.44,633.124L1250.57,633.124Z"/>
    </g>
</svg>
